<mxfile host="app.diagrams.net" modified="2024-04-30T19:42:12.956Z" agent="Mozilla/5.0 (Windows NT 10.0; Win64; x64) AppleWebKit/537.36 (KHTML, like Gecko) Chrome/124.0.0.0 Safari/537.36" etag="xGz1s9FhuDB-cCmebT7v" version="24.3.1" type="github">
  <diagram name="Página-1" id="7gb1BxyFsbVd0V2A0j1I">
    <mxGraphModel dx="989" dy="1697" grid="1" gridSize="10" guides="1" tooltips="1" connect="1" arrows="1" fold="1" page="1" pageScale="1" pageWidth="827" pageHeight="1169" math="0" shadow="0">
      <root>
        <mxCell id="0" />
        <mxCell id="1" parent="0" />
        <mxCell id="GOM_Ayjf232FpLKz0-QT-1" value="" style="rounded=0;whiteSpace=wrap;html=1;fillColor=default;" vertex="1" parent="1">
          <mxGeometry x="180" y="-50" width="460" height="540" as="geometry" />
        </mxCell>
        <mxCell id="GOM_Ayjf232FpLKz0-QT-4" value="&lt;font style=&quot;font-size: 18px;&quot;&gt;&lt;b&gt;CASO ESCUELA SIGLO XXI&lt;/b&gt;&lt;/font&gt;" style="text;html=1;align=center;verticalAlign=middle;whiteSpace=wrap;rounded=0;" vertex="1" parent="1">
          <mxGeometry x="305" y="-40" width="250" height="20" as="geometry" />
        </mxCell>
        <mxCell id="GOM_Ayjf232FpLKz0-QT-7" value="Padres/Tutor" style="shape=umlActor;verticalLabelPosition=bottom;verticalAlign=top;html=1;outlineConnect=0;" vertex="1" parent="1">
          <mxGeometry x="680" y="160" width="30" height="60" as="geometry" />
        </mxCell>
        <mxCell id="GOM_Ayjf232FpLKz0-QT-5" value="Administración" style="shape=umlActor;verticalLabelPosition=bottom;verticalAlign=top;html=1;outlineConnect=0;" vertex="1" parent="1">
          <mxGeometry x="120" y="185" width="30" height="60" as="geometry" />
        </mxCell>
        <mxCell id="GOM_Ayjf232FpLKz0-QT-10" value="" style="endArrow=none;html=1;rounded=0;exitX=1;exitY=0.5;exitDx=0;exitDy=0;entryX=0.5;entryY=0.5;entryDx=0;entryDy=0;entryPerimeter=0;" edge="1" parent="1" source="GOM_Ayjf232FpLKz0-QT-11" target="GOM_Ayjf232FpLKz0-QT-7">
          <mxGeometry width="50" height="50" relative="1" as="geometry">
            <mxPoint x="290" y="220" as="sourcePoint" />
            <mxPoint x="340" y="170" as="targetPoint" />
          </mxGeometry>
        </mxCell>
        <mxCell id="GOM_Ayjf232FpLKz0-QT-13" value="" style="group" vertex="1" connectable="0" parent="1">
          <mxGeometry x="530" y="40" width="90" height="40" as="geometry" />
        </mxCell>
        <mxCell id="GOM_Ayjf232FpLKz0-QT-11" value="" style="ellipse;whiteSpace=wrap;html=1;" vertex="1" parent="GOM_Ayjf232FpLKz0-QT-13">
          <mxGeometry width="90" height="40" as="geometry" />
        </mxCell>
        <mxCell id="GOM_Ayjf232FpLKz0-QT-12" value="Realizar inscripción" style="text;html=1;align=center;verticalAlign=middle;whiteSpace=wrap;rounded=0;" vertex="1" parent="GOM_Ayjf232FpLKz0-QT-13">
          <mxGeometry x="10" y="5" width="70" height="30" as="geometry" />
        </mxCell>
        <mxCell id="GOM_Ayjf232FpLKz0-QT-15" value="" style="group" vertex="1" connectable="0" parent="1">
          <mxGeometry x="530" y="145" width="90" height="40" as="geometry" />
        </mxCell>
        <mxCell id="GOM_Ayjf232FpLKz0-QT-16" value="" style="ellipse;whiteSpace=wrap;html=1;" vertex="1" parent="GOM_Ayjf232FpLKz0-QT-15">
          <mxGeometry width="90" height="40" as="geometry" />
        </mxCell>
        <mxCell id="GOM_Ayjf232FpLKz0-QT-17" value="Pagar inscripción" style="text;html=1;align=center;verticalAlign=middle;whiteSpace=wrap;rounded=0;" vertex="1" parent="GOM_Ayjf232FpLKz0-QT-15">
          <mxGeometry x="10" y="5" width="70" height="30" as="geometry" />
        </mxCell>
        <mxCell id="GOM_Ayjf232FpLKz0-QT-18" value="" style="endArrow=none;html=1;rounded=0;entryX=0.5;entryY=0.5;entryDx=0;entryDy=0;entryPerimeter=0;exitX=1;exitY=0.5;exitDx=0;exitDy=0;" edge="1" parent="1" source="GOM_Ayjf232FpLKz0-QT-16" target="GOM_Ayjf232FpLKz0-QT-7">
          <mxGeometry width="50" height="50" relative="1" as="geometry">
            <mxPoint x="590" y="220" as="sourcePoint" />
            <mxPoint x="680" y="260" as="targetPoint" />
          </mxGeometry>
        </mxCell>
        <mxCell id="GOM_Ayjf232FpLKz0-QT-24" value="&lt;font style=&quot;font-size: 10px;&quot;&gt;Descuento 50% más de un hijo&lt;/font&gt;" style="ellipse;whiteSpace=wrap;html=1;" vertex="1" parent="1">
          <mxGeometry x="410" y="180" width="80" height="55" as="geometry" />
        </mxCell>
        <mxCell id="GOM_Ayjf232FpLKz0-QT-25" value="" style="group" vertex="1" connectable="0" parent="1">
          <mxGeometry x="520" y="235" width="90" height="40" as="geometry" />
        </mxCell>
        <mxCell id="GOM_Ayjf232FpLKz0-QT-26" value="" style="ellipse;whiteSpace=wrap;html=1;" vertex="1" parent="GOM_Ayjf232FpLKz0-QT-25">
          <mxGeometry width="90" height="40" as="geometry" />
        </mxCell>
        <mxCell id="GOM_Ayjf232FpLKz0-QT-27" value="Cuota mensual" style="text;html=1;align=center;verticalAlign=middle;whiteSpace=wrap;rounded=0;" vertex="1" parent="GOM_Ayjf232FpLKz0-QT-25">
          <mxGeometry x="10" y="5" width="70" height="30" as="geometry" />
        </mxCell>
        <mxCell id="GOM_Ayjf232FpLKz0-QT-28" value="" style="endArrow=none;html=1;rounded=0;exitX=1;exitY=0.5;exitDx=0;exitDy=0;" edge="1" parent="1" source="GOM_Ayjf232FpLKz0-QT-26">
          <mxGeometry width="50" height="50" relative="1" as="geometry">
            <mxPoint x="600" y="245" as="sourcePoint" />
            <mxPoint x="695" y="190" as="targetPoint" />
          </mxGeometry>
        </mxCell>
        <mxCell id="GOM_Ayjf232FpLKz0-QT-30" value="" style="endArrow=none;dashed=1;html=1;dashPattern=1 3;strokeWidth=1;rounded=0;entryX=0.5;entryY=1;entryDx=0;entryDy=0;exitX=0.5;exitY=0;exitDx=0;exitDy=0;" edge="1" parent="1" source="GOM_Ayjf232FpLKz0-QT-16" target="GOM_Ayjf232FpLKz0-QT-11">
          <mxGeometry width="50" height="50" relative="1" as="geometry">
            <mxPoint x="555" y="150" as="sourcePoint" />
            <mxPoint x="550" y="80" as="targetPoint" />
          </mxGeometry>
        </mxCell>
        <mxCell id="GOM_Ayjf232FpLKz0-QT-31" value="&lt;font style=&quot;font-size: 8px;&quot;&gt;Include&lt;/font&gt;" style="text;html=1;align=center;verticalAlign=middle;whiteSpace=wrap;rounded=0;" vertex="1" parent="1">
          <mxGeometry x="530" y="100" width="45" height="20" as="geometry" />
        </mxCell>
        <mxCell id="GOM_Ayjf232FpLKz0-QT-32" value="" style="endArrow=none;dashed=1;html=1;dashPattern=1 3;strokeWidth=1;rounded=0;entryX=1;entryY=0;entryDx=0;entryDy=0;exitX=0;exitY=0.5;exitDx=0;exitDy=0;" edge="1" parent="1" source="GOM_Ayjf232FpLKz0-QT-16" target="GOM_Ayjf232FpLKz0-QT-24">
          <mxGeometry width="50" height="50" relative="1" as="geometry">
            <mxPoint x="565" y="155" as="sourcePoint" />
            <mxPoint x="565" y="90" as="targetPoint" />
          </mxGeometry>
        </mxCell>
        <mxCell id="GOM_Ayjf232FpLKz0-QT-33" value="" style="endArrow=none;dashed=1;html=1;dashPattern=1 3;strokeWidth=1;rounded=0;entryX=1;entryY=1;entryDx=0;entryDy=0;exitX=0.023;exitY=0.394;exitDx=0;exitDy=0;exitPerimeter=0;" edge="1" parent="1" source="GOM_Ayjf232FpLKz0-QT-26" target="GOM_Ayjf232FpLKz0-QT-24">
          <mxGeometry width="50" height="50" relative="1" as="geometry">
            <mxPoint x="520" y="175" as="sourcePoint" />
            <mxPoint x="487" y="198" as="targetPoint" />
          </mxGeometry>
        </mxCell>
        <mxCell id="GOM_Ayjf232FpLKz0-QT-34" value="&lt;font style=&quot;font-size: 8px;&quot;&gt;Include&lt;/font&gt;" style="text;html=1;align=center;verticalAlign=middle;whiteSpace=wrap;rounded=0;rotation=-25;" vertex="1" parent="1">
          <mxGeometry x="475" y="155" width="45" height="20" as="geometry" />
        </mxCell>
        <mxCell id="GOM_Ayjf232FpLKz0-QT-35" value="&lt;font style=&quot;font-size: 8px;&quot;&gt;Include&lt;/font&gt;" style="text;html=1;align=center;verticalAlign=middle;whiteSpace=wrap;rounded=0;rotation=30;" vertex="1" parent="1">
          <mxGeometry x="475" y="235" width="45" height="20" as="geometry" />
        </mxCell>
        <mxCell id="GOM_Ayjf232FpLKz0-QT-36" value="" style="group" vertex="1" connectable="0" parent="1">
          <mxGeometry x="210" y="290" width="140" height="40" as="geometry" />
        </mxCell>
        <mxCell id="GOM_Ayjf232FpLKz0-QT-37" value="" style="ellipse;whiteSpace=wrap;html=1;" vertex="1" parent="GOM_Ayjf232FpLKz0-QT-36">
          <mxGeometry width="100" height="40" as="geometry" />
        </mxCell>
        <mxCell id="GOM_Ayjf232FpLKz0-QT-38" value="Citar padres por adeudamiento" style="text;html=1;align=center;verticalAlign=middle;whiteSpace=wrap;rounded=0;fontSize=10;" vertex="1" parent="GOM_Ayjf232FpLKz0-QT-36">
          <mxGeometry x="8.629999999999999" y="5" width="82.73" height="30" as="geometry" />
        </mxCell>
        <mxCell id="GOM_Ayjf232FpLKz0-QT-40" value="" style="endArrow=none;html=1;rounded=0;entryX=0.5;entryY=0.5;entryDx=0;entryDy=0;entryPerimeter=0;exitX=-0.046;exitY=0.618;exitDx=0;exitDy=0;exitPerimeter=0;" edge="1" parent="1" source="GOM_Ayjf232FpLKz0-QT-60" target="GOM_Ayjf232FpLKz0-QT-5">
          <mxGeometry width="50" height="50" relative="1" as="geometry">
            <mxPoint x="209.99999999999682" y="205.00000000000023" as="sourcePoint" />
            <mxPoint x="290" y="190" as="targetPoint" />
          </mxGeometry>
        </mxCell>
        <mxCell id="GOM_Ayjf232FpLKz0-QT-42" value="" style="endArrow=none;dashed=1;html=1;dashPattern=1 3;strokeWidth=1;rounded=0;exitX=0.5;exitY=0;exitDx=0;exitDy=0;entryX=0.5;entryY=1;entryDx=0;entryDy=0;" edge="1" parent="1" source="GOM_Ayjf232FpLKz0-QT-37" target="GOM_Ayjf232FpLKz0-QT-60">
          <mxGeometry width="50" height="50" relative="1" as="geometry">
            <mxPoint x="270" y="300" as="sourcePoint" />
            <mxPoint x="260" y="225.00000000000023" as="targetPoint" />
          </mxGeometry>
        </mxCell>
        <mxCell id="GOM_Ayjf232FpLKz0-QT-43" value="&lt;span style=&quot;font-size: 8px;&quot;&gt;Extend&lt;/span&gt;" style="text;html=1;align=center;verticalAlign=middle;whiteSpace=wrap;rounded=0;" vertex="1" parent="1">
          <mxGeometry x="257.5" y="255" width="45" height="20" as="geometry" />
        </mxCell>
        <mxCell id="GOM_Ayjf232FpLKz0-QT-44" value="&lt;font style=&quot;font-size: 10px;&quot;&gt;Pagar en cuotas&lt;/font&gt;" style="ellipse;whiteSpace=wrap;html=1;" vertex="1" parent="1">
          <mxGeometry x="370" y="310" width="90" height="55" as="geometry" />
        </mxCell>
        <mxCell id="GOM_Ayjf232FpLKz0-QT-45" value="" style="endArrow=none;dashed=1;html=1;dashPattern=1 3;strokeWidth=1;rounded=0;exitX=0;exitY=0.5;exitDx=0;exitDy=0;entryX=1;entryY=0.5;entryDx=0;entryDy=0;" edge="1" parent="1" source="GOM_Ayjf232FpLKz0-QT-44" target="GOM_Ayjf232FpLKz0-QT-37">
          <mxGeometry width="50" height="50" relative="1" as="geometry">
            <mxPoint x="340" y="380" as="sourcePoint" />
            <mxPoint x="340" y="320" as="targetPoint" />
          </mxGeometry>
        </mxCell>
        <mxCell id="GOM_Ayjf232FpLKz0-QT-46" value="&lt;span style=&quot;font-size: 8px;&quot;&gt;Extend&lt;/span&gt;" style="text;html=1;align=center;verticalAlign=middle;whiteSpace=wrap;rounded=0;rotation=25;" vertex="1" parent="1">
          <mxGeometry x="325" y="310" width="45" height="20" as="geometry" />
        </mxCell>
        <mxCell id="GOM_Ayjf232FpLKz0-QT-47" value="" style="endArrow=none;dashed=1;html=1;dashPattern=1 3;strokeWidth=1;rounded=0;exitX=1;exitY=0.5;exitDx=0;exitDy=0;entryX=0;entryY=1;entryDx=0;entryDy=0;" edge="1" parent="1" source="GOM_Ayjf232FpLKz0-QT-44" target="GOM_Ayjf232FpLKz0-QT-27">
          <mxGeometry width="50" height="50" relative="1" as="geometry">
            <mxPoint x="395" y="348" as="sourcePoint" />
            <mxPoint x="330" y="330" as="targetPoint" />
          </mxGeometry>
        </mxCell>
        <mxCell id="GOM_Ayjf232FpLKz0-QT-48" value="&lt;span style=&quot;font-size: 8px;&quot;&gt;Extend&lt;/span&gt;" style="text;html=1;align=center;verticalAlign=middle;whiteSpace=wrap;rounded=0;rotation=-45;" vertex="1" parent="1">
          <mxGeometry x="460" y="290" width="45" height="20" as="geometry" />
        </mxCell>
        <mxCell id="GOM_Ayjf232FpLKz0-QT-49" value="" style="group" vertex="1" connectable="0" parent="1">
          <mxGeometry x="210" y="100" width="165" height="40" as="geometry" />
        </mxCell>
        <mxCell id="GOM_Ayjf232FpLKz0-QT-50" value="" style="ellipse;whiteSpace=wrap;html=1;" vertex="1" parent="GOM_Ayjf232FpLKz0-QT-49">
          <mxGeometry width="100" height="40" as="geometry" />
        </mxCell>
        <mxCell id="GOM_Ayjf232FpLKz0-QT-51" value="Gestionar inscripciones" style="text;html=1;align=center;verticalAlign=middle;whiteSpace=wrap;rounded=0;fontSize=10;" vertex="1" parent="GOM_Ayjf232FpLKz0-QT-49">
          <mxGeometry x="8.629999999999999" y="5" width="82.73" height="30" as="geometry" />
        </mxCell>
        <mxCell id="GOM_Ayjf232FpLKz0-QT-52" value="" style="endArrow=none;html=1;rounded=0;entryX=0.5;entryY=0.5;entryDx=0;entryDy=0;entryPerimeter=0;exitX=0;exitY=0.5;exitDx=0;exitDy=0;" edge="1" parent="1" source="GOM_Ayjf232FpLKz0-QT-50" target="GOM_Ayjf232FpLKz0-QT-5">
          <mxGeometry width="50" height="50" relative="1" as="geometry">
            <mxPoint x="230" y="230" as="sourcePoint" />
            <mxPoint x="145" y="230" as="targetPoint" />
          </mxGeometry>
        </mxCell>
        <mxCell id="GOM_Ayjf232FpLKz0-QT-55" value="&lt;font style=&quot;font-size: 9px;&quot;&gt;Gestionar descuentos&lt;/font&gt;" style="ellipse;whiteSpace=wrap;html=1;" vertex="1" parent="1">
          <mxGeometry x="330" y="145" width="80" height="40" as="geometry" />
        </mxCell>
        <mxCell id="GOM_Ayjf232FpLKz0-QT-56" value="" style="endArrow=none;dashed=1;html=1;dashPattern=1 3;strokeWidth=1;rounded=0;entryX=1;entryY=0.5;entryDx=0;entryDy=0;exitX=0;exitY=1;exitDx=0;exitDy=0;" edge="1" parent="1" source="GOM_Ayjf232FpLKz0-QT-55" target="GOM_Ayjf232FpLKz0-QT-60">
          <mxGeometry width="50" height="50" relative="1" as="geometry">
            <mxPoint x="540" y="175" as="sourcePoint" />
            <mxPoint x="310.0000000000034" y="205.00000000000023" as="targetPoint" />
          </mxGeometry>
        </mxCell>
        <mxCell id="GOM_Ayjf232FpLKz0-QT-57" value="" style="endArrow=none;dashed=1;html=1;dashPattern=1 3;strokeWidth=1;rounded=0;entryX=0;entryY=0;entryDx=0;entryDy=0;exitX=1;exitY=1;exitDx=0;exitDy=0;" edge="1" parent="1" source="GOM_Ayjf232FpLKz0-QT-50" target="GOM_Ayjf232FpLKz0-QT-55">
          <mxGeometry width="50" height="50" relative="1" as="geometry">
            <mxPoint x="347" y="189" as="sourcePoint" />
            <mxPoint x="330" y="215" as="targetPoint" />
          </mxGeometry>
        </mxCell>
        <mxCell id="GOM_Ayjf232FpLKz0-QT-59" value="&lt;span style=&quot;font-size: 8px;&quot;&gt;Extend&lt;/span&gt;" style="text;html=1;align=center;verticalAlign=middle;whiteSpace=wrap;rounded=0;rotation=-35;" vertex="1" parent="1">
          <mxGeometry x="312.5" y="192.5" width="45" height="20" as="geometry" />
        </mxCell>
        <mxCell id="GOM_Ayjf232FpLKz0-QT-60" value="&lt;font style=&quot;font-size: 10px;&quot;&gt;Gestionar cobro de cuotas&lt;/font&gt;" style="ellipse;whiteSpace=wrap;html=1;" vertex="1" parent="1">
          <mxGeometry x="215" y="175" width="90" height="55" as="geometry" />
        </mxCell>
        <mxCell id="GOM_Ayjf232FpLKz0-QT-58" value="&lt;span style=&quot;font-size: 8px;&quot;&gt;Extend&lt;/span&gt;" style="text;html=1;align=center;verticalAlign=middle;whiteSpace=wrap;rounded=0;rotation=20;" vertex="1" parent="1">
          <mxGeometry x="305" y="125" width="45" height="20" as="geometry" />
        </mxCell>
        <mxCell id="GOM_Ayjf232FpLKz0-QT-61" value="&lt;font style=&quot;font-size: 10px;&quot;&gt;Registrar reincorporacion con deuda&lt;/font&gt;" style="ellipse;whiteSpace=wrap;html=1;" vertex="1" parent="1">
          <mxGeometry x="205" y="380" width="100" height="55" as="geometry" />
        </mxCell>
        <mxCell id="GOM_Ayjf232FpLKz0-QT-62" value="" style="endArrow=none;html=1;rounded=0;entryX=0.5;entryY=0.5;entryDx=0;entryDy=0;entryPerimeter=0;exitX=0;exitY=0.5;exitDx=0;exitDy=0;" edge="1" parent="1" source="GOM_Ayjf232FpLKz0-QT-61" target="GOM_Ayjf232FpLKz0-QT-5">
          <mxGeometry width="50" height="50" relative="1" as="geometry">
            <mxPoint x="221" y="219" as="sourcePoint" />
            <mxPoint x="145" y="215" as="targetPoint" />
          </mxGeometry>
        </mxCell>
        <mxCell id="GOM_Ayjf232FpLKz0-QT-63" value="" style="endArrow=none;dashed=1;html=1;dashPattern=1 3;strokeWidth=1;rounded=0;exitX=0.034;exitY=0.75;exitDx=0;exitDy=0;entryX=1;entryY=0.5;entryDx=0;entryDy=0;exitPerimeter=0;" edge="1" parent="1" source="GOM_Ayjf232FpLKz0-QT-44" target="GOM_Ayjf232FpLKz0-QT-61">
          <mxGeometry width="50" height="50" relative="1" as="geometry">
            <mxPoint x="380" y="348" as="sourcePoint" />
            <mxPoint x="320" y="320" as="targetPoint" />
          </mxGeometry>
        </mxCell>
        <mxCell id="GOM_Ayjf232FpLKz0-QT-64" value="&lt;span style=&quot;font-size: 8px;&quot;&gt;Extend&lt;/span&gt;" style="text;html=1;align=center;verticalAlign=middle;whiteSpace=wrap;rounded=0;rotation=-40;" vertex="1" parent="1">
          <mxGeometry x="325" y="370" width="45" height="20" as="geometry" />
        </mxCell>
      </root>
    </mxGraphModel>
  </diagram>
</mxfile>
